<svg width="24" height="24" viewBox="0 0 24 24" fill="none" xmlns="http://www.w3.org/2000/svg">
  <defs>
    <linearGradient id="goldGradient" x1="0%" y1="0%" x2="100%" y2="100%">
      <stop offset="0%" style="stop-color:#fcdb6a;stop-opacity:1" />
      <stop offset="100%" style="stop-color:#b99653;stop-opacity:1" />
    </linearGradient>
  </defs>
  
  <!-- Chef hat outline -->
  <path d="M12 3C10.5 3 9.2 3.8 8.5 5C7.1 4.7 5.6 5.5 5 6.8C3.8 7.3 3 8.5 3 10V12C3 13.1 3.9 14 5 14H19C20.1 14 21 13.1 21 12V10C21 8.5 20.2 7.3 19 6.8C18.4 5.5 16.9 4.7 15.5 5C14.8 3.8 13.5 3 12 3Z" 
        stroke="url(#goldGradient)" 
        stroke-width="1.5" 
        fill="none"/>
  
  <!-- Chef hat base -->
  <rect x="5" y="14" width="14" height="7" rx="1" 
        fill="url(#goldGradient)" 
        opacity="0.3"/>
  
  <!-- Sparkles -->
  <circle cx="7" cy="8" r="1" fill="url(#goldGradient)"/>
  <circle cx="17" cy="8" r="1" fill="url(#goldGradient)"/>
  <circle cx="12" cy="6" r="1" fill="url(#goldGradient)"/>
</svg>